<svg width="512" height="512" viewBox="0 0 512 512" fill="none" xmlns="http://www.w3.org/2000/svg">
<path d="M176 432C184.837 432 192 424.837 192 416C192 407.163 184.837 400 176 400C167.163 400 160 407.163 160 416C160 424.837 167.163 432 176 432Z" stroke="#6B47BD" stroke-width="45" stroke-linecap="round" stroke-linejoin="round"/>
<path d="M400 432C408.837 432 416 424.837 416 416C416 407.163 408.837 400 400 400C391.163 400 384 407.163 384 416C384 424.837 391.163 432 400 432Z" stroke="#6B47BD" stroke-width="45" stroke-linecap="round" stroke-linejoin="round"/>
<path d="M48 80H112L160 352H416" stroke="#6B47BD" stroke-width="45" stroke-linecap="round" stroke-linejoin="round"/>
<path d="M160 288H409.44C411.29 288.001 413.084 287.361 414.515 286.189C415.946 285.016 416.927 283.384 417.29 281.57L446.09 137.57C446.322 136.409 446.294 135.211 446.007 134.062C445.72 132.913 445.182 131.842 444.431 130.926C443.68 130.011 442.735 129.273 441.664 128.767C440.594 128.261 439.424 127.999 438.24 128H128" stroke="#6B47BD" stroke-width="45" stroke-linecap="round" stroke-linejoin="round"/>
</svg>
